<?xml version="1.0" encoding="UTF-8" standalone="no"?>
<!-- Created with Inkscape (http://www.inkscape.org/) -->
<svg
   xmlns:svg="http://www.w3.org/2000/svg"
   xmlns="http://www.w3.org/2000/svg"
   version="1.0"
   width="535"
   height="800"
   id="svg2">
  <defs
     id="defs4" />
  <g
     style="display:inline"
     id="layer1">
    <path
       d="M 90.16848,37.93966 L 90.16848,66.37716 L 90.16848,103.40841 L 90.16848,151.62716 L 90.16848,219.00216 L 90.16848,505.43966 L 90.16848,572.81466 L 90.16848,621.03341 L 90.16848,658.06466 L 90.16848,686.50216 L 111.23098,686.50216 C 119.61481,677.36473 127.5651,667.83065 135.23098,658.06466 L 109.32473,658.06466 C 118.65627,646.1767 127.37419,633.78087 135.57473,621.03341 L 109.79348,621.03341 C 119.73985,605.55726 128.76398,589.43256 136.91848,572.81466 L 111.04348,570.81466 C 121.6272,549.2264 130.52344,528.68524 137.82473,505.43966 L 112.01223,501.43966 C 126.18382,456.18373 133.94973,412.10118 133.94973,362.18966 C 133.94971,312.29596 126.20535,268.23271 112.04348,223.00216 L 137.82473,219.00216 C 130.52783,195.76199 121.65453,175.2072 111.07473,153.62716 L 136.98098,151.62716 C 128.82466,135.00096 119.77596,118.89104 109.82473,103.40841 L 135.60598,103.40841 C 127.39877,90.65131 118.66512,78.27441 109.32473,66.37716 L 135.23098,66.37716 C 127.5651,56.6128 119.61481,47.0765 111.23098,37.93966 L 90.16848,37.93966 z "
       style="opacity:1;color:#000000;fill:#cde9f4;fill-opacity:1;fill-rule:evenodd;stroke:#000000;stroke-width:3;stroke-linecap:butt;stroke-linejoin:miter;marker:none;marker-start:none;marker-mid:none;marker-end:none;stroke-miterlimit:4;stroke-dasharray:none;stroke-dashoffset:0;stroke-opacity:1;visibility:visible;display:inline;overflow:visible"
       id="path2035" />
    <path
       d="M 307.70656,37.9352 L 307.70656,686.4977 L 338.48781,686.4977 C 416.88774,601.05063 464.83152,487.19848 464.83152,362.1852 C 464.83152,237.17191 416.88773,123.37679 338.48781,37.9352 L 307.70656,37.9352 z "
       style="opacity:1;color:#000000;fill:#cde9f4;fill-opacity:1;fill-rule:evenodd;stroke:#000000;stroke-width:3;stroke-linecap:butt;stroke-linejoin:miter;marker:none;marker-start:none;marker-mid:none;marker-end:none;stroke-miterlimit:4;stroke-dasharray:none;stroke-dashoffset:0;stroke-opacity:1;visibility:visible;display:inline;overflow:visible"
       id="path2121" />
    <path
       d="M 112.37161,763.56482 L 101.02786,763.56482 L 101.02786,761.18982 L 105.24661,761.18982 L 105.24661,745.59607 L 101.02786,745.59607 L 101.02786,743.47107 C 102.62161,743.47109 103.79348,743.24713 104.54349,742.79919 C 105.3039,742.34088 105.73098,741.48151 105.82474,740.22107 L 108.24661,740.22107 L 108.24661,761.18982 L 112.37161,761.18982 L 112.37161,763.56482"
       style="font-size:32px;font-style:normal;font-variant:normal;font-weight:normal;font-stretch:normal;text-align:start;line-height:125%;writing-mode:lr-tb;text-anchor:start;fill:#000000;fill-opacity:1;stroke:none;stroke-width:1px;stroke-linecap:butt;stroke-linejoin:miter;stroke-opacity:1;font-family:Tahoma"
       id="text2050" />
    <path
       d="M 346.69733,763.56482 L 332.33795,763.56482 L 332.33795,760.29919 C 333.3692,759.32003 334.34316,758.38253 335.25983,757.48669 C 336.17649,756.59087 337.07232,755.65858 337.94733,754.68982 C 339.71815,752.74191 340.92648,751.18462 341.57233,750.01794 C 342.21815,748.84088 342.54106,747.62734 342.54108,746.37732 C 342.54106,745.7315 342.4369,745.1638 342.22858,744.67419 C 342.03065,744.18463 341.75461,743.77838 341.40045,743.45544 C 341.03586,743.14296 340.61398,742.90859 340.13483,742.75232 C 339.65565,742.59609 339.12961,742.51797 338.5567,742.51794 C 338.00461,742.51797 337.44211,742.59088 336.8692,742.73669 C 336.3067,742.87213 335.76503,743.04401 335.2442,743.25232 C 334.8067,743.42942 334.38482,743.64296 333.97858,743.89294 C 333.57232,744.14296 333.2442,744.35651 332.9942,744.53357 L 332.82233,744.53357 L 332.82233,741.22107 C 333.46816,740.89818 334.36399,740.58568 335.50983,740.28357 C 336.66607,739.97109 337.75982,739.81484 338.79108,739.81482 C 340.95773,739.81484 342.65565,740.39297 343.88483,741.54919 C 345.11398,742.69505 345.72856,744.25234 345.72858,746.22107 C 345.72856,747.12734 345.61919,747.96588 345.40045,748.73669 C 345.1921,749.50754 344.90044,750.22108 344.52545,750.87732 C 344.14002,751.55441 343.67648,752.22629 343.13483,752.89294 C 342.59315,753.55962 342.02023,754.21587 341.41608,754.86169 C 340.4369,755.9242 339.34315,757.02837 338.13483,758.17419 C 336.9369,759.32003 335.97857,760.22628 335.25983,760.89294 L 346.69733,760.89294 L 346.69733,763.56482"
       style="font-size:32px;font-style:normal;font-variant:normal;font-weight:normal;font-stretch:normal;text-align:start;line-height:125%;writing-mode:lr-tb;text-anchor:start;fill:#000000;fill-opacity:1;stroke:none;stroke-width:1px;stroke-linecap:butt;stroke-linejoin:miter;stroke-opacity:1;font-family:Tahoma"
       id="text2054" />
    <path
       d="M 33.999323,361.7165 L 493.79969,361.7165"
       style="fill:none;fill-opacity:0.75;fill-rule:evenodd;stroke:#000000;stroke-width:1;stroke-linecap:butt;stroke-linejoin:miter;marker-start:none;stroke-miterlimit:4;stroke-dasharray:8, 4;stroke-dashoffset:0;stroke-opacity:1"
       id="path2068" />
  </g>
</svg>
